<svg width="36" height="36" viewBox="0 0 36 36" fill="none" xmlns="http://www.w3.org/2000/svg">
<path d="M15.831 9.36004L10.7565 3.50255C10.1715 2.82755 9.09901 2.83055 8.41951 3.51155L4.24651 7.69204C3.00451 8.93554 2.64901 10.782 3.36751 12.2625C7.65994 21.15 14.8276 28.3277 23.709 32.6325C25.188 33.351 27.033 32.9955 28.275 31.752L32.487 27.5325C33.1695 26.85 33.171 25.7715 32.49 25.1865L26.61 20.139C25.995 19.611 25.0395 19.68 24.423 20.298L22.377 22.347C22.2723 22.4568 22.1344 22.5292 21.9845 22.553C21.8347 22.5769 21.6812 22.5509 21.5475 22.479C18.2032 20.5532 15.429 17.7754 13.5075 14.4285C13.4356 14.2947 13.4095 14.1409 13.4333 13.9908C13.4572 13.8407 13.5296 13.7025 13.6395 13.5975L15.6795 11.556C16.2975 10.935 16.365 9.97654 15.831 9.36004Z" stroke="#F2A74C" stroke-width="3" stroke-linecap="round" stroke-linejoin="round"/>
</svg>
