<?xml version="1.0" encoding="UTF-8"?><svg id="_Слой_1" xmlns="http://www.w3.org/2000/svg" viewBox="0 0 64 64"><defs><style>.cls-1{fill:#ffbb4f;font-family:Limelight-Regular, Limelight;font-size:9px;}.cls-2,.cls-3{opacity:.5;}.cls-3{isolation:isolate;}.cls-3,.cls-4{fill:#350e00;}.cls-3,.cls-4,.cls-5,.cls-6{stroke-width:0px;}.cls-5{fill:#a23e43;}.cls-6{fill:#f55;}</style></defs><path class="cls-5" d="m64,41.7l-.9-2.5c-.7.3-1.5-.1-1.7-.8-.3-.7.1-1.5.8-1.7l-1-2.7c-.7.3-1.5-.1-1.7-.8-.3-.7.1-1.5.8-1.7l-.9-2.5c-.7.3-1.5-.1-1.7-.8-.3-.7.1-1.5.8-1.7l-.9-2.5c-.7.2-1.4-.1-1.7-.7-2.7.3-5.4-1.2-6.3-3.9l-37.4,13.4c1.1,3.1-.5,6.5-3.6,7.7l7.3,19.9c3.1-1.1,6.5.5,7.7,3.6l37.3-13.6c-1-2.7.1-5.6,2.4-7.1-.3-.6,0-1.4.7-1.6"/><path class="cls-6" d="m56.6,46.7l-32.2,11.7c-1.7.6-3.6-.3-4.3-2l-5.7-15.7c-.6-1.7.3-3.6,2-4.3l32.2-11.7c1.7-.6,3.6.3,4.3,2l5.7,15.7c.6,1.8-.3,3.7-2,4.3m-39.6-8.6c-.9.3-1.3,1.3-1,2.1l5.7,15.7c.3.9,1.3,1.3,2.1,1l32.2-11.7c.9-.3,1.3-1.3,1-2.1l-5.7-15.7c-.3-.9-1.3-1.3-2.1-1l-32.2,11.7Z"/><g class="cls-2"><path class="cls-4" d="m25.4,54.8l30.4-25.5c-1.5-1.8-1.7-4.1-.9-6.1-2.4-.1-4.5-1.6-5.4-3.9l-37.3,13.5c1.1,3.1-.5,6.5-3.6,7.7l2.3,6.4,6,7.2c2.6-2.2,6.3-1.8,8.5.7"/><path class="cls-3" d="m25.4,54.8l30.4-25.5c-1.5-1.8-1.7-4.1-.9-6.1-2.4-.1-4.5-1.6-5.4-3.9l-37.3,13.5c1.1,3.1-.5,6.5-3.6,7.7l2.3,6.4,6,7.2c2.6-2.2,6.3-1.8,8.5.7"/></g><path class="cls-5" d="m52.5,16.1l-1.7-2.1c-.6.5-1.4.4-1.9-.2s-.4-1.4.2-1.9l-1.7-2.1c-.6.5-1.4.4-1.9-.2s-.4-1.4.2-1.9l-1.7-2.1c-.6.5-1.4.4-1.9-.2-.7-.4-.6-1.2-.1-1.7l-1.7-2.1c-.6.5-1.4.4-1.9-.1-2.4,1.2-5.4.7-7.3-1.5L.7,25.5c2.2,2.6,1.8,6.4-.7,8.5l13.6,16.3c2.5-2.1,6.3-1.8,8.4.7l30.4-25.5c-1.8-2.2-1.8-5.3-.2-7.5-.3-.6-.2-1.4.3-1.9"/><path class="cls-6" d="m47.2,23.4l-26.2,22c-1.4,1.2-3.5,1-4.7-.4l-10.7-12.8c-1.2-1.4-1-3.5.4-4.7L32.2,5.5c1.4-1.2,3.5-1,4.7.4l10.7,12.8c1.2,1.4,1,3.5-.4,4.7M7.1,28.8c-.7.6-.8,1.6-.2,2.3l10.7,12.9c.6.7,1.6.8,2.3.2l26.2-22c.7-.6.8-1.6.2-2.3l-10.7-12.9c-.6-.7-1.6-.8-2.3-.2L7.1,28.8"/><text class="cls-1" transform="translate(16.08 38.41) rotate(-41)"><tspan x="0" y="0">TICKET</tspan></text></svg>