<svg width="36" height="36" viewBox="0 0 36 36" fill="none" xmlns="http://www.w3.org/2000/svg">
<g clip-path="url(#clip0_8_7)">
<mask id="mask0_8_7" style="mask-type:luminance" maskUnits="userSpaceOnUse" x="0" y="0" width="36" height="36">
<path d="M36 0H0V36H36V0Z" fill="white"/>
</mask>
<g mask="url(#mask0_8_7)">
<path fill-rule="evenodd" clip-rule="evenodd" d="M26.1225 21.5731C25.6755 21.3496 23.484 20.2726 23.076 20.1226C22.668 19.9741 22.371 19.9006 22.0725 20.3476C21.7755 20.7916 20.922 21.7966 20.6625 22.0936C20.4015 22.3921 20.142 22.4281 19.6965 22.2061C19.251 21.9811 17.814 21.5116 16.1115 19.9936C14.787 18.8116 13.8915 17.3521 13.632 16.9051C13.3725 16.4596 13.6035 16.2181 13.827 15.9961C14.028 15.7966 14.2725 15.4756 14.496 15.2161C14.7195 14.9551 14.793 14.7691 14.9415 14.4706C15.0915 14.1736 15.0165 13.9141 14.904 13.6906C14.793 13.4671 13.902 11.2726 13.53 10.3801C13.1685 9.51156 12.801 9.63006 12.528 9.61506C12.267 9.60306 11.97 9.60006 11.673 9.60006C11.376 9.60006 10.893 9.71106 10.485 10.1581C10.0755 10.6036 8.925 11.6821 8.925 13.8766C8.925 16.0696 10.521 18.1891 10.7445 18.4876C10.968 18.7846 13.887 23.2876 18.3585 25.2181C19.4235 25.6771 20.253 25.9516 20.8995 26.1556C21.9675 26.4961 22.9395 26.4481 23.7075 26.3326C24.5625 26.2051 26.3445 25.2541 26.7165 24.2131C27.087 23.1721 27.087 22.2796 26.976 22.0936C26.865 21.9076 26.568 21.7966 26.121 21.5731H26.1225ZM17.9895 32.6776H17.9835C15.3276 32.678 12.7206 31.9641 10.4355 30.6106L9.8955 30.2896L4.2825 31.7626L5.781 26.2906L5.4285 25.7296C3.94371 23.3661 3.15794 20.6307 3.162 17.8396C3.165 9.66456 9.816 3.01356 17.9955 3.01356C21.9555 3.01356 25.6785 4.55856 28.4775 7.36056C29.8581 8.73543 30.9523 10.3704 31.6969 12.1709C32.4415 13.9714 32.8217 15.9017 32.8155 17.8501C32.8125 26.0251 26.1615 32.6776 17.9895 32.6776ZM30.6075 5.23206C28.9548 3.56845 26.9883 2.24937 24.8221 1.35126C22.6559 0.453157 20.333 -0.00611437 17.988 6.14663e-05C8.157 6.14663e-05 0.153 8.00256 0.15 17.8381C0.1485 20.9821 0.969 24.0511 2.5305 26.7556L0 36.0001L9.456 33.5191C12.0718 34.9442 15.0031 35.691 17.982 35.6911H17.9895C27.8205 35.6911 35.8245 27.6886 35.8275 17.8516C35.8348 15.5075 35.3771 13.1852 34.4811 11.0191C33.5851 8.85301 32.2685 6.88607 30.6075 5.23206Z" fill="#F2A74C"/>
</g>
</g>
<defs>
<clipPath id="clip0_8_7">
<rect width="36" height="36" fill="white"/>
</clipPath>
</defs>
</svg>
